Coordinates
version=1
nRows=15
nColumns=46
inDegrees=yes

Units are S.I. units (second, meters, Newtons, ...)
Angles are in degrees.

endheader
time	pelvis_tilt	pelvis_list	pelvis_rotation	pelvis_tx	pelvis_ty	pelvis_tz	bb_angle	bb_tx	bb_ty	bb_tz	hip_flexion_r	hip_adduction_r	hip_rotation_r	knee_angle_r	knee_angle_r_beta	ankle_angle_r	subtalar_angle_r	mtp_angle_r	crank_angle_r	hip_flexion_l	hip_adduction_l	hip_rotation_l	knee_angle_l	knee_angle_l_beta	ankle_angle_l	subtalar_angle_l	mtp_angle_l	crank_angle_l	lumbar_extension	lumbar_bending	lumbar_rotation	arm_flex_r	arm_add_r	arm_rot_r	elbow_flex_r	pro_sup_r	wrist_flex_r	wrist_dev_r	arm_flex_l	arm_add_l	arm_rot_l	elbow_flex_l	pro_sup_l	wrist_flex_l	wrist_dev_l
      7.50000000	     -9.50169872	      4.25364241	      9.39776303	      0.07403882	      1.17390900	     -0.23815875	      0.00000000	      0.50000000	      0.00000000	      0.25000000	     56.53531713	    -10.34273346	      6.00995268	     87.77203916	      1.53191107	    -25.96403587	     -7.11986187	      0.00000000	      0.00000000	     55.95277862	      6.96029200	      3.67482039	     55.83569794	      0.97451677	      7.60827618	    -10.41996548	      0.00000000	      0.00000000	    -65.69034939	      4.11856940	     -7.75445803	     89.52426336	    -13.11515691	     37.20275456	     48.93605218	     37.85437576	      0.00000000	      0.00000000	     89.70413741	    -15.67789460	     39.99617582	     52.07629548	     33.49911558	      0.00000000	      0.00000000
      7.50500000	     -9.37395847	      3.82229141	      9.14038891	      0.07431878	      1.17338885	     -0.23950392	      0.00000000	      0.50000000	      0.00000000	      0.25000000	     57.88479801	    -10.00223836	      6.08268915	     89.51487828	      1.56232936	    -27.17625862	     -6.65193810	      0.00000000	      0.00000000	     54.35147917	      6.33258654	      3.67965855	     53.55324488	      0.93468045	      6.98070360	     -9.81051003	      0.00000000	      0.00000000	    -65.57773975	      4.37698916	     -7.26375597	     89.53221941	    -13.03527094	     37.37421902	     48.82512603	     37.79096918	      0.00000000	      0.00000000	     89.69020866	    -15.70987971	     40.16371457	     51.79632842	     33.39781761	      0.00000000	      0.00000000
      7.51000000	     -9.18844100	      3.61793729	      8.74702625	      0.07483900	      1.17309514	     -0.24080584	      0.00000000	      0.50000000	      0.00000000	      0.25000000	     59.21038736	     -9.73970688	      6.39636312	     91.26464807	      1.59286860	    -28.08146259	     -6.42064498	      0.00000000	      0.00000000	     52.53867643	      5.73325323	      3.36751591	     51.16760790	      0.89304323	      6.64756476	     -9.31926650	      0.00000000	      0.00000000	    -65.48092976	      4.36113227	     -6.86899060	     89.54553465	    -13.05829429	     37.85228154	     48.44220438	     37.59730316	      0.00000000	      0.00000000	     89.68756267	    -15.54530377	     40.74708270	     50.98942524	     33.13332656	      0.00000000	      0.00000000
      7.51500000	     -9.02191410	      3.24072245	      8.31090169	      0.07533217	      1.17279215	     -0.24198207	      0.00000000	      0.50000000	      0.00000000	      0.25000000	     60.53682767	     -9.35011176	      6.48862275	     92.88861377	      1.62121215	    -28.94391285	     -6.18836077	      0.00000000	      0.00000000	     50.74580961	      4.97830593	      3.18785404	     48.83672698	      0.85236168	      6.19586509	     -8.21107131	      0.00000000	      0.00000000	    -65.37084200	      4.44458507	     -6.24899493	     89.56314559	    -13.06947026	     38.35754601	     48.11934931	     37.28018098	      0.00000000	      0.00000000	     89.68334060	    -15.35520801	     41.22737391	     50.19632807	     32.76481810	      0.00000000	      0.00000000
      7.52000000	     -8.85578113	      2.91924826	      7.81478140	      0.07586485	      1.17241468	     -0.24316312	      0.00000000	      0.50000000	      0.00000000	      0.25000000	     61.88657942	     -8.90077794	      6.71059644	     94.48148134	      1.64901293	    -29.73767221	     -6.01931248	      0.00000000	      0.00000000	     48.92018282	      4.22031144	      2.85986968	     46.54667060	      0.81239266	      5.94213055	     -7.21936773	      0.00000000	      0.00000000	    -65.31947340	      4.48085001	     -5.72243941	     89.57050061	    -12.98038842	     38.53403192	     48.02278083	     37.17713058	      0.00000000	      0.00000000	     89.66882371	    -15.36141381	     41.47630499	     49.81613370	     32.64696229	      0.00000000	      0.00000000
      7.52500000	     -8.61401314	      2.38695509	      7.11660430	      0.07661726	      1.17208887	     -0.24386001	      0.00000000	      0.50000000	      0.00000000	      0.25000000	     63.11982944	     -8.10397072	      6.78032734	     95.97180015	      1.67502390	    -30.37647606	     -5.94560391	      0.00000000	      0.00000000	     47.08951988	      2.99171684	      2.10337674	     44.42718613	      0.77540068	      6.04181379	     -3.10022895	      0.00000000	      0.00000000	    -65.29351221	      4.47680135	     -4.83506775	     89.57582587	    -12.99288369	     38.91948635	     47.80378073	     37.19948214	      0.00000000	      0.00000000	     89.66224560	    -15.22658922	     41.91708697	     48.89564650	     32.88659419	      0.00000000	      0.00000000
      7.53000000	     -8.55317203	      1.86746455	      6.49231072	      0.07705990	      1.17086131	     -0.24504790	      0.00000000	      0.50000000	      0.00000000	      0.25000000	     64.66847254	     -7.46351888	      6.86433326	     97.54029894	      1.70239937	    -30.86837067	     -5.72312010	      0.00000000	      0.00000000	     45.58994629	      2.19414114	      2.11718899	     42.62089230	      0.74387490	      5.72964381	     -3.76512839	      0.00000000	      0.00000000	    -65.01766133	      4.53030401	     -4.03624707	     89.59356976	    -12.92685412	     39.26598761	     47.48108974	     36.96255013	      0.00000000	      0.00000000	     89.64976572	    -15.12241663	     42.57084332	     48.12843039	     32.68147089	      0.00000000	      0.00000000
      7.53500000	     -8.65138372	      1.19083158	      6.16037718	      0.07729679	      1.17009168	     -0.24663483	      0.00000000	      0.50000000	      0.00000000	      0.25000000	     66.24509925	     -7.05635945	      6.60517341	     98.93545282	      1.72674940	    -31.12898821	     -5.55519241	      0.00000000	      0.00000000	     44.14031206	      1.30719281	      1.89305484	     40.51885947	      0.70718751	      5.35414920	     -2.99872408	      0.00000000	      0.00000000	    -64.73685845	      5.05591540	     -3.25029613	     89.61896570	    -12.68002923	     39.36507734	     47.50478149	     36.94427122	      0.00000000	      0.00000000	     89.61709207	    -15.29362392	     42.58811094	     47.95223395	     32.63845543	      0.00000000	      0.00000000
      7.54000000	     -8.38817619	      0.78430870	      5.20752985	      0.07794668	      1.16939474	     -0.24716224	      0.00000000	      0.50000000	      0.00000000	      0.25000000	     67.54337465	     -6.10576124	      6.86156541	    100.36552897	      1.75170894	    -31.33256455	     -5.37372568	      0.00000000	      0.00000000	     42.37566402	      0.22705483	      1.20232652	     38.86988084	      0.67840740	      5.20920584	     -3.07661203	      0.00000000	      0.00000000	    -64.69315374	      4.74662631	     -2.42551944	     89.61472248	    -12.53176646	     39.69319462	     47.02058393	     36.72468991	      0.00000000	      0.00000000	     89.61301602	    -15.12169407	     43.46128188	     46.89771598	     32.45914729	      0.00000000	      0.00000000
      7.54500000	     -8.32685992	      0.39565895	      4.68090795	      0.07832965	      1.16894672	     -0.24834311	      0.00000000	      0.50000000	      0.00000000	      0.25000000	     68.97104533	     -5.64276959	      6.92462912	    101.67476129	      1.77455935	    -31.32356640	     -5.07964746	      0.00000000	      0.00000000	     40.69109246	     -0.66113111	      0.32500239	     36.83382678	      0.64287155	      4.81881986	     -1.47997173	      0.00000000	      0.00000000	    -64.53025737	      4.89874202	     -1.79218621	     89.62348204	    -12.34315376	     39.96811507	     46.72789215	     36.55639782	      0.00000000	      0.00000000	     89.60458795	    -15.06436252	     43.99588220	     46.11675884	     32.31211061	      0.00000000	      0.00000000
      7.55000000	     -8.24070192	     -0.25042195	      3.96204058	      0.07880641	      1.16813954	     -0.24912166	      0.00000000	      0.50000000	      0.00000000	      0.25000000	     70.35860975	     -4.76910378	      6.82113933	    102.95339307	      1.79687569	    -30.99095281	     -4.78314693	      0.00000000	      0.00000000	     39.19394392	     -1.83571810	     -0.48141015	     35.27864578	      0.61572852	      4.79386757	     -0.02863368	      0.00000000	      0.00000000	    -64.34476053	      5.01042435	     -0.83551667	     89.63334817	    -12.11129527	     40.32501221	     46.25829769	     36.29749597	      0.00000000	      0.00000000	     89.59586565	    -14.94267539	     44.73028353	     45.11331610	     32.13978785	      0.00000000	      0.00000000
      7.55500000	     -8.11518787	     -0.89032413	      3.32691194	      0.07925376	      1.16745016	     -0.24993057	      0.00000000	      0.50000000	      0.00000000	      0.25000000	     71.67860746	     -4.02274246	      6.61560052	    104.17733532	      1.81823751	    -30.55585018	     -4.57499017	      0.00000000	      0.00000000	     37.74219572	     -3.01081303	     -1.51645400	     33.80716685	      0.59004637	      4.58265528	      2.87763214	      0.00000000	      0.00000000	    -64.22505918	      5.20171552	      0.05750938	     89.64047652	    -11.86051537	     40.63714055	     45.86535251	     36.03168601	      0.00000000	      0.00000000	     89.58437461	    -14.84524306	     45.36221239	     44.18878130	     31.98526581	      0.00000000	      0.00000000
      7.56000000	     -8.15798640	     -1.58035687	      2.82196998	      0.07951436	      1.16666367	     -0.25109529	      0.00000000	      0.50000000	      0.00000000	      0.25000000	     73.10039870	     -3.39201908	      6.29779770	    105.29632737	      1.83776760	    -30.01248536	     -4.51147541	      0.00000000	      0.00000000	     36.56678131	     -3.97282208	     -2.03251036	     32.51881451	      0.56756038	      4.04185898	      3.57539647	      0.00000000	      0.00000000	    -64.01753925	      5.55997190	      0.82886714	     89.64439206	    -11.58035211	     40.77347146	     45.76146868	     35.94925515	      0.00000000	      0.00000000	     89.54469209	    -14.92616678	     45.56190955	     43.79235838	     31.91646371	      0.00000000	      0.00000000
      7.56500000	     -7.93371935	     -2.13604094	      2.04372600	      0.08002383	      1.16644990	     -0.25147983	      0.00000000	      0.50000000	      0.00000000	      0.25000000	     74.21032247	     -2.50739435	      6.15428184	    106.33453995	      1.85588783	    -29.05683269	     -4.16668789	      0.00000000	      0.00000000	     35.09893386	     -5.19735401	     -3.50208028	     31.28403179	      0.54600936	      3.75610816	      6.02714911	      0.00000000	      0.00000000	    -64.03132043	      5.53088992	      1.74451842	     89.65199294	    -11.27077653	     40.99892979	     45.14193241	     35.66579395	      0.00000000	      0.00000000	     89.55043459	    -14.70589538	     46.37628169	     42.63033295	     31.75708980	      0.00000000	      0.00000000
      7.57000000	     -7.92675054	     -2.75819484	      1.58790960	      0.08014574	      1.16594516	     -0.25247327	      0.00000000	      0.50000000	      0.00000000	      0.25000000	     75.49993630	     -1.90933555	      5.85771308	    107.28406058	      1.87246009	    -28.13681280	     -4.01860345	      0.00000000	      0.00000000	     34.06554299	     -6.09656538	     -4.17976206	     30.39339752	      0.53046486	      3.32535679	      7.00495772	      0.00000000	      0.00000000	    -63.81247791	      5.87859893	      2.55040780	     89.65912115	    -10.89627031	     41.27080093	     44.47829578	     35.06322613	      0.00000000	      0.00000000	     89.55582243	    -14.43464763	     47.23391846	     41.25942359	     31.53601063	      0.00000000	      0.00000000
